<?xml version="1.0" encoding="UTF-8"?> <svg xmlns="http://www.w3.org/2000/svg" xmlns:xlink="http://www.w3.org/1999/xlink" width="1024" zoomAndPan="magnify" viewBox="0 0 768 767.999994" height="1024" preserveAspectRatio="xMidYMid meet" version="1.0"><defs><clipPath id="40465c5108"><path d="M 145.164062 198.1875 L 620 198.1875 L 620 568.542969 L 145.164062 568.542969 Z M 145.164062 198.1875 " clip-rule="nonzero"></path></clipPath></defs><path fill="#006368" d="M 768 384 C 768 390.285156 767.84375 396.566406 767.539062 402.84375 C 767.230469 409.117188 766.765625 415.382812 766.152344 421.636719 C 765.535156 427.894531 764.765625 434.128906 763.84375 440.34375 C 762.921875 446.5625 761.847656 452.75 760.621094 458.914062 C 759.394531 465.078125 758.019531 471.207031 756.492188 477.304688 C 754.964844 483.402344 753.289062 489.457031 751.464844 495.46875 C 749.640625 501.484375 747.667969 507.449219 745.550781 513.367188 C 743.433594 519.28125 741.175781 525.144531 738.769531 530.949219 C 736.363281 536.757812 733.820312 542.5 731.132812 548.179688 C 728.445312 553.863281 725.621094 559.472656 722.65625 565.015625 C 719.695312 570.558594 716.597656 576.023438 713.367188 581.414062 C 710.136719 586.804688 706.777344 592.113281 703.285156 597.339844 C 699.792969 602.5625 696.175781 607.699219 692.429688 612.75 C 688.6875 617.796875 684.824219 622.75 680.835938 627.605469 C 676.847656 632.464844 672.746094 637.222656 668.523438 641.878906 C 664.304688 646.535156 659.972656 651.085938 655.527344 655.527344 C 651.085938 659.972656 646.535156 664.304688 641.878906 668.523438 C 637.222656 672.746094 632.464844 676.847656 627.605469 680.835938 C 622.75 684.824219 617.796875 688.6875 612.75 692.429688 C 607.699219 696.175781 602.5625 699.792969 597.339844 703.285156 C 592.113281 706.777344 586.804688 710.136719 581.414062 713.367188 C 576.023438 716.597656 570.558594 719.695312 565.015625 722.65625 C 559.472656 725.621094 553.863281 728.445312 548.179688 731.132812 C 542.5 733.820312 536.757812 736.363281 530.949219 738.769531 C 525.144531 741.175781 519.28125 743.433594 513.367188 745.550781 C 507.449219 747.667969 501.484375 749.640625 495.46875 751.464844 C 489.457031 753.289062 483.398438 754.964844 477.304688 756.492188 C 471.207031 758.019531 465.078125 759.394531 458.914062 760.621094 C 452.75 761.847656 446.5625 762.921875 440.34375 763.84375 C 434.128906 764.765625 427.894531 765.535156 421.636719 766.152344 C 415.382812 766.765625 409.117188 767.230469 402.84375 767.539062 C 396.566406 767.847656 390.285156 768 384 768 C 377.714844 768 371.433594 767.847656 365.15625 767.539062 C 358.882812 767.230469 352.617188 766.765625 346.363281 766.152344 C 340.105469 765.535156 333.871094 764.765625 327.65625 763.84375 C 321.4375 762.921875 315.25 761.847656 309.085938 760.621094 C 302.921875 759.394531 296.792969 758.019531 290.695312 756.492188 C 284.597656 754.964844 278.542969 753.289062 272.53125 751.464844 C 266.515625 749.640625 260.550781 747.667969 254.632812 745.550781 C 248.71875 743.433594 242.855469 741.175781 237.050781 738.769531 C 231.242188 736.363281 225.5 733.820312 219.820312 731.132812 C 214.136719 728.445312 208.527344 725.621094 202.984375 722.65625 C 197.441406 719.695312 191.976562 716.597656 186.585938 713.367188 C 181.195312 710.136719 175.886719 706.777344 170.660156 703.285156 C 165.4375 699.792969 160.300781 696.175781 155.25 692.429688 C 150.203125 688.6875 145.25 684.824219 140.394531 680.835938 C 135.535156 676.847656 130.777344 672.746094 126.121094 668.523438 C 121.464844 664.304688 116.914062 659.972656 112.472656 655.527344 C 108.027344 651.085938 103.695312 646.535156 99.476562 641.878906 C 95.253906 637.222656 91.152344 632.464844 87.164062 627.605469 C 83.175781 622.75 79.3125 617.796875 75.566406 612.75 C 71.824219 607.699219 68.207031 602.5625 64.714844 597.339844 C 61.222656 592.113281 57.863281 586.804688 54.632812 581.414062 C 51.402344 576.023438 48.304688 570.558594 45.34375 565.015625 C 42.378906 559.472656 39.554688 553.863281 36.867188 548.179688 C 34.179688 542.5 31.636719 536.757812 29.230469 530.949219 C 26.824219 525.144531 24.5625 519.28125 22.445312 513.367188 C 20.328125 507.449219 18.359375 501.484375 16.535156 495.46875 C 14.710938 489.457031 13.035156 483.398438 11.507812 477.304688 C 9.980469 471.207031 8.605469 465.078125 7.378906 458.914062 C 6.152344 452.75 5.078125 446.5625 4.15625 440.34375 C 3.234375 434.128906 2.464844 427.894531 1.847656 421.636719 C 1.234375 415.382812 0.769531 409.117188 0.460938 402.84375 C 0.152344 396.566406 0 390.285156 0 384 C 0 377.714844 0.152344 371.433594 0.460938 365.15625 C 0.769531 358.882812 1.234375 352.617188 1.847656 346.363281 C 2.464844 340.105469 3.234375 333.871094 4.15625 327.65625 C 5.078125 321.4375 6.152344 315.25 7.378906 309.085938 C 8.605469 302.921875 9.980469 296.792969 11.507812 290.695312 C 13.035156 284.597656 14.710938 278.542969 16.535156 272.53125 C 18.359375 266.515625 20.328125 260.550781 22.445312 254.632812 C 24.5625 248.71875 26.824219 242.855469 29.230469 237.050781 C 31.636719 231.242188 34.179688 225.5 36.867188 219.820312 C 39.554688 214.136719 42.378906 208.527344 45.34375 202.984375 C 48.304688 197.441406 51.402344 191.976562 54.632812 186.585938 C 57.863281 181.195312 61.222656 175.886719 64.714844 170.660156 C 68.207031 165.4375 71.824219 160.300781 75.566406 155.25 C 79.3125 150.203125 83.175781 145.25 87.164062 140.394531 C 91.152344 135.535156 95.253906 130.777344 99.476562 126.121094 C 103.695312 121.464844 108.027344 116.914062 112.472656 112.472656 C 116.914062 108.027344 121.464844 103.695312 126.121094 99.476562 C 130.777344 95.253906 135.535156 91.152344 140.394531 87.164062 C 145.25 83.175781 150.203125 79.3125 155.25 75.566406 C 160.300781 71.824219 165.4375 68.207031 170.660156 64.714844 C 175.886719 61.222656 181.195312 57.863281 186.585938 54.632812 C 191.976562 51.402344 197.441406 48.304688 202.984375 45.34375 C 208.527344 42.378906 214.136719 39.554688 219.820312 36.867188 C 225.5 34.179688 231.242188 31.636719 237.050781 29.230469 C 242.855469 26.824219 248.71875 24.5625 254.632812 22.445312 C 260.550781 20.328125 266.515625 18.359375 272.53125 16.535156 C 278.542969 14.710938 284.597656 13.035156 290.695312 11.507812 C 296.792969 9.980469 302.921875 8.605469 309.085938 7.378906 C 315.25 6.152344 321.4375 5.078125 327.65625 4.15625 C 333.871094 3.234375 340.105469 2.464844 346.363281 1.847656 C 352.617188 1.234375 358.882812 0.769531 365.15625 0.460938 C 371.433594 0.152344 377.714844 0 384 0 C 390.285156 0 396.566406 0.152344 402.84375 0.460938 C 409.117188 0.769531 415.382812 1.234375 421.636719 1.847656 C 427.894531 2.464844 434.128906 3.234375 440.34375 4.15625 C 446.5625 5.078125 452.75 6.152344 458.914062 7.378906 C 465.078125 8.605469 471.207031 9.980469 477.304688 11.507812 C 483.398438 13.035156 489.457031 14.710938 495.46875 16.535156 C 501.484375 18.359375 507.449219 20.328125 513.367188 22.445312 C 519.28125 24.5625 525.144531 26.824219 530.949219 29.230469 C 536.757812 31.636719 542.5 34.179688 548.179688 36.867188 C 553.863281 39.554688 559.472656 42.378906 565.015625 45.34375 C 570.558594 48.304688 576.023438 51.402344 581.414062 54.632812 C 586.804688 57.863281 592.113281 61.222656 597.339844 64.714844 C 602.5625 68.207031 607.699219 71.824219 612.75 75.566406 C 617.796875 79.3125 622.75 83.175781 627.605469 87.164062 C 632.464844 91.152344 637.222656 95.253906 641.878906 99.476562 C 646.535156 103.695312 651.085938 108.027344 655.527344 112.472656 C 659.972656 116.914062 664.304688 121.464844 668.523438 126.121094 C 672.746094 130.777344 676.847656 135.535156 680.835938 140.394531 C 684.824219 145.25 688.6875 150.203125 692.429688 155.25 C 696.175781 160.300781 699.792969 165.4375 703.285156 170.660156 C 706.777344 175.886719 710.136719 181.195312 713.367188 186.585938 C 716.597656 191.976562 719.695312 197.441406 722.65625 202.984375 C 725.621094 208.527344 728.445312 214.136719 731.132812 219.820312 C 733.820312 225.5 736.363281 231.242188 738.769531 237.050781 C 741.175781 242.855469 743.433594 248.71875 745.550781 254.632812 C 747.667969 260.550781 749.640625 266.515625 751.464844 272.53125 C 753.289062 278.542969 754.964844 284.597656 756.492188 290.695312 C 758.019531 296.792969 759.394531 302.921875 760.621094 309.085938 C 761.847656 315.25 762.921875 321.4375 763.84375 327.65625 C 764.765625 333.871094 765.535156 340.105469 766.152344 346.363281 C 766.765625 352.617188 767.230469 358.882812 767.539062 365.15625 C 767.84375 371.433594 768 377.714844 768 384 Z M 768 384 " fill-opacity="1" fill-rule="nonzero"></path><g clip-path="url(#40465c5108)"><path fill="#ffffff" d="M 585.664062 310.078125 C 583.722656 295.667969 583.460938 270.800781 596.859375 262.476562 C 597.085938 262.328125 597.269531 262.101562 597.496094 261.917969 C 608.429688 258.40625 616.007812 253.480469 610.074219 246.871094 L 448.535156 198.1875 L 187.003906 234.550781 C 187.003906 234.550781 157.070312 238.84375 159.71875 285.398438 C 161.175781 310.710938 169.125 323.144531 176.066406 329.265625 L 154.605469 335.765625 C 148.671875 342.371094 156.246094 347.261719 167.183594 350.773438 C 167.40625 350.957031 167.558594 351.183594 167.816406 351.332031 C 181.179688 359.695312 180.917969 384.523438 179.015625 398.96875 C 130.941406 412.597656 148.1875 417.078125 148.1875 417.078125 L 158.75 419.617188 C 151.320312 426.335938 143.929688 439.03125 145.347656 463.148438 C 148 509.703125 172.59375 512.914062 172.59375 512.914062 L 343.765625 568.542969 L 602.085938 505.96875 C 602.085938 505.96875 619.328125 501.492188 571.253906 487.824219 C 569.316406 473.453125 569.054688 448.585938 582.453125 440.226562 C 582.714844 440.074219 582.863281 439.851562 583.085938 439.664062 C 594.023438 436.15625 601.601562 431.265625 595.664062 424.65625 L 584.429688 421.257812 C 591.933594 416.742188 603.167969 404.945312 604.921875 374.253906 C 606.152344 353.199219 600.628906 340.839844 594.285156 333.5625 L 616.457031 328.183594 C 616.457031 328.183594 633.738281 323.742188 585.664062 310.078125 Z M 369.59375 309.480469 L 413 300.558594 L 559.835938 270.355469 L 581.707031 265.875 C 574.691406 278.679688 574.988281 296.1875 576.144531 307.425781 C 576.40625 309.964844 576.703125 312.28125 576.964844 314.074219 L 553.042969 320.007812 L 367.765625 366.117188 Z M 182.972656 354.765625 L 204.84375 359.246094 L 345.816406 388.253906 L 358.132812 390.792969 L 395.085938 398.375 L 396.875 455.007812 L 206.449219 407.632812 L 187.675781 402.964844 C 187.972656 401.171875 188.234375 398.859375 188.53125 396.320312 C 189.652344 385.082031 189.953125 367.574219 182.972656 354.765625 Z M 174.460938 283.160156 C 174.199219 270.765625 176.402344 261.804688 180.882812 257.25 C 183.71875 254.335938 187.078125 253.742188 189.355469 253.742188 C 190.585938 253.742188 191.445312 253.925781 191.519531 253.925781 L 304.199219 290.664062 L 360.410156 308.996094 L 358.582031 366.042969 L 200.851562 321.800781 L 192.527344 319.484375 C 192.226562 319.410156 191.78125 319.335938 191.480469 319.335938 C 190.808594 319.261719 175.246094 317.84375 174.460938 283.160156 Z M 344.175781 543.828125 L 178.121094 497.273438 C 177.820312 497.160156 177.410156 497.121094 177.074219 497.085938 C 176.402344 497.046875 160.800781 495.628906 160.054688 460.945312 C 159.792969 448.550781 161.996094 439.589844 166.472656 435.035156 C 169.3125 432.125 172.632812 431.527344 174.945312 431.527344 C 176.140625 431.527344 177.039062 431.710938 177.074219 431.710938 C 177.074219 431.710938 177.113281 431.710938 177.074219 431.710938 L 346.003906 486.78125 Z M 561.738281 485.210938 C 562 487.75 562.296875 490.066406 562.558594 491.859375 L 353.355469 543.902344 L 355.148438 487.265625 L 399.898438 478.042969 L 406.507812 479.648438 L 431.253906 471.621094 L 545.390625 448.140625 L 567.261719 443.660156 C 560.28125 456.429688 560.582031 473.9375 561.738281 485.210938 Z M 573.269531 408.191406 C 572.898438 408.230469 572.488281 408.265625 572.152344 408.378906 L 556.363281 412.820312 L 406.097656 454.933594 L 404.265625 397.886719 L 453.574219 381.796875 L 572.933594 342.855469 C 572.933594 342.855469 579.207031 341.476562 583.796875 346.144531 C 588.238281 350.699219 590.476562 359.65625 590.214844 372.050781 C 589.433594 406.734375 573.832031 408.15625 573.269531 408.191406 Z M 573.269531 408.191406 " fill-opacity="1" fill-rule="nonzero"></path></g></svg> 